:FULLY-SPECIFIED
:FORCE-ALL-JOINTS-BE-3DOF
:DEGREES
2344
root 0.676706 14.0754 -18.4184 -158.427 -64.2971 165.127
lfemur -5.71004 -4.10389 -0.627938
ltibia 36.5132 -0 0
lfoot -11.4464 26.8425 -0.0687103
ltoes -44.0879 0 0
rfemur -67.0134 -11.7682 12.5468
rtibia 78.7626 -0 0
rfoot -11.0712 -16.6928 0.146108
rtoes 5.01516 -0 0
lowerback 19.3465 3.33073 -3.50318
upperback 0.1504 3.43403 -0.605825
thorax -10.8934 1.72564 0.35472
lowerneck -5.01865 -2.50726 -4.87526
upperneck 3.05822 -3.05194 0.222408
head 2.12434 -1.55847 0.907604
lclavicle -2.66371e-14 3.18055e-15 0
lhumerus -34.9762 -23.6143 89.1117
lradius 101.698 -0 0
lwrist 45.2225 0 0
lhand -24.6099 43.3913 0.0278974
lfingers 7.12502 -0 0
lthumb 1.889 73.2904 0.0315979
rclavicle -2.66371e-14 3.18055e-15 0
rhumerus 47.5705 15.092 -47.1278
rradius 49.5392 -0 0
rwrist 5.95004 0 0
rhand -6.91594 -38.2481 -0.0242571
rfingers 7.12502 -0 0
rthumb 18.9496 -67.3198 -0.01527
2345
root 0.670473 14.1003 -18.5749 -155.98 -67.8261 162.778
lfemur -6.95576 -3.6361 -1.05953
ltibia 38.0513 -0 0
lfoot -11.2138 26.6814 -0.0778761
ltoes -43.3082 0 0
rfemur -66.4508 -11.2692 12.7198
rtibia 78.6685 -0 0
rfoot -11.3238 -17.0077 0.165609
rtoes 4.70907 -0 0
lowerback 19.3105 3.27932 -3.33435
upperback 0.107552 3.41443 -0.561191
thorax -10.9132 1.7104 0.313768
lowerneck -5.03922 -2.15757 -4.59804
upperneck 3.236 -2.58727 -0.0934494
head 2.19003 -1.33032 0.789648
lclavicle -2.66371e-14 3.18055e-15 0
lhumerus -32.7723 -24.93 88.8277
lradius 101.999 -0 0
lwrist 42.972 0 0
lhand -25.0056 43.3529 0.0316206
lfingers 7.12502 -0 0
lthumb 1.50698 73.2454 0.0358147
rclavicle -2.66371e-14 3.18055e-15 0
rhumerus 46.7192 16.4883 -47.1297
rradius 50.848 -0 0
rwrist 5.27521 0 0
rhand -6.71418 -38.3137 -0.0274922
rfingers 7.12502 -0 0
rthumb 19.1433 -67.3627 -0.0173064
2346
root 0.664239 14.1253 -18.7313 -152.648 -71.3032 159.542
lfemur -8.20438 -3.17779 -1.501
ltibia 39.5893 -0 0
lfoot -10.9812 26.5203 -0.0863882
ltoes -42.5285 0 0
rfemur -65.8876 -10.7718 12.8974
rtibia 78.5745 -0 0
rfoot -11.5765 -17.3227 0.18372
rtoes 4.40299 -0 0
lowerback 19.2743 3.22803 -3.16551
upperback 0.0646905 3.39485 -0.516543
thorax -10.9331 1.69514 0.272821
lowerneck -5.05809 -1.80779 -4.32102
upperneck 3.41115 -2.12162 -0.407757
head 2.25524 -1.10204 0.671963
lclavicle -2.66371e-14 3.18055e-15 0
lhumerus -30.5369 -26.2346 88.4843
lradius 102.301 -0 0
lwrist 40.7214 0 0
lhand -25.4012 43.3145 0.0350786
lfingers 7.12502 -0 0
lthumb 1.12496 73.2003 0.0397311
rclavicle -2.66371e-14 3.18055e-15 0
rhumerus 45.8614 17.8845 -47.1534
rradius 52.1568 -0 0
rwrist 4.60039 0 0
rhand -6.51241 -38.3792 -0.0304965
rfingers 7.12502 -0 0
rthumb 19.337 -67.4057 -0.0191976
2347
root 0.658006 14.1502 -18.8878 -147.855 -74.6929 154.846
lfemur -9.45599 -2.7292 -1.95218
ltibia 41.1273 -0 0
lfoot -10.7487 26.3592 -0.0942462
ltoes -41.7488 0 0
rfemur -65.3238 -10.2761 13.0797
rtibia 78.4804 -0 0
rfoot -11.8292 -17.6378 0.200442
rtoes 4.0969 -0 0
lowerback 19.238 3.17684 -2.99664
upperback 0.0218143 3.37532 -0.471882
thorax -10.9529 1.67987 0.231879
lowerneck -5.07526 -1.45791 -4.04415
upperneck 3.58369 -1.65502 -0.720555
head 2.31997 -0.873619 0.554547
lclavicle -2.66371e-14 3.18055e-15 0
lhumerus -28.2669 -27.5261 88.0799
lradius 102.603 -0 0
lwrist 38.4708 0 0
lhand -25.7969 43.2761 0.0382712
lfingers 7.12502 -0 0
lthumb 0.742929 73.1552 0.0433469
rclavicle -2.66371e-14 3.18055e-15 0
rhumerus 44.9959 19.2801 -47.1995
rradius 53.4656 -0 0
rwrist 3.92556 0 0
rhand -6.31064 -38.4448 -0.0332698
rfingers 7.12502 -0 0
rthumb 19.5308 -67.4487 -0.0209433
2348
root 0.651773 14.1751 -19.0443 -140.47 -77.9216 147.556
lfemur -10.7107 -2.29057 -2.41291
ltibia 42.6654 -0 0
lfoot -10.516 26.1981 -0.10145
ltoes -40.9691 0 0
rfemur -64.7592 -9.7823 13.2667
rtibia 78.3863 -0 0
rfoot -12.0821 -17.953 0.215773
rtoes 3.79082 -0 0
lowerback 19.2015 3.12576 -2.82775
upperback -0.0210762 3.35581 -0.427207
thorax -10.9727 1.66459 0.190944
lowerneck -5.09074 -1.10796 -3.76743
upperneck 3.75365 -1.18749 -1.03188
head 2.38423 -0.645071 0.437395
lclavicle -2.66371e-14 3.18055e-15 0
lhumerus -25.9592 -28.8021 87.6126
lradius 102.905 -0 0
lwrist 36.2202 0 0
lhand -26.1926 43.2376 0.0411984
lfingers 7.12502 -0 0
lthumb 0.360899 73.1101 0.046662
rclavicle -2.66371e-14 3.18055e-15 0
rhumerus 44.1216 20.6749 -47.2684
rradius 54.7744 -0 0
rwrist 3.25073 0 0
rhand -6.10886 -38.5104 -0.0358122
rfingers 7.12502 -0 0
rthumb 19.7245 -67.4917 -0.0225436
2349
root 0.64554 14.2001 -19.2007 -128.155 -80.8175 135.335
lfemur -11.9685 -1.86215 -2.88301
ltibia 44.2034 -0 0
lfoot -10.2834 26.0369 -0.108
ltoes -40.1893 0 0
rfemur -64.1939 -9.29029 13.4583
rtibia 78.2923 -0 0
rfoot -12.3351 -18.2682 0.229713
rtoes 3.48473 -0 0
lowerback 19.1649 3.07478 -2.65883
upperback -0.063981 3.33634 -0.382518
thorax -10.9924 1.64929 0.150014
lowerneck -5.10453 -0.757938 -3.49083
upperneck 3.92104 -0.719045 -1.34178
head 2.44803 -0.416392 0.320504
lclavicle -2.66371e-14 3.18055e-15 0
lhumerus -23.6105 -30.0604 87.0804
lradius 103.207 -0 0
lwrist 33.9696 0 0
lhand -26.5883 43.1991 0.0438599
lfingers 7.12502 -0 0
lthumb -0.0211337 73.065 0.0496762
rclavicle -2.66371e-14 3.18055e-15 0
rhumerus 43.237 22.0686 -47.361
rradius 56.0833 -0 0
rwrist 2.57591 0 0
rhand -5.90709 -38.576 -0.0381235
rfingers 7.12502 -0 0
rthumb 19.9182 -67.5347 -0.0239985
2350
root 0.639307 14.225 -19.3572 -106.762 -82.9576 114.037
lfemur -13.2295 -1.44415 -3.3623
ltibia 45.7414 -0 0
lfoot -10.0508 25.8757 -0.113895
ltoes -39.4096 0 0
rfemur -63.6276 -8.80017 13.6546
rtibia 78.1982 -0 0
rfoot -12.5881 -18.5835 0.242261
rtoes 3.17865 -0 0
lowerback 19.1281 3.02391 -2.48989
upperback -0.1069 3.3169 -0.337816
thorax -11.0122 1.63398 0.109089
lowerneck -5.11663 -0.407853 -3.21433
upperneck 4.08589 -0.249703 -1.65029
head 2.51135 -0.187583 0.20387
lclavicle -2.66371e-14 3.18055e-15 0
lhumerus -21.2177 -31.2984 86.4814
lradius 103.509 -0 0
lwrist 31.7191 0 0
lhand -26.984 43.1606 0.0462556
lfingers 7.12502 -0 0
lthumb -0.403169 73.0198 0.0523894
rclavicle -2.66371e-14 3.18055e-15 0
rhumerus 42.341 23.4607 -47.478
rradius 57.3921 -0 0
rwrist 1.90108 0 0
rhand -5.70531 -38.6416 -0.0402038
rfingers 7.12502 -0 0
rthumb 20.112 -67.5778 -0.025308
2351
root 0.633073 14.2499 -19.5137 -75.5721 -83.5409 82.9403
lfemur -14.4938 -1.03681 -3.85061
ltibia 47.2795 -0 0
lfoot -9.81809 25.7145 -0.119135
ltoes -38.6299 0 0
rfemur -63.0604 -8.31199 13.8555
rtibia 78.1042 -0 0
rfoot -12.8412 -18.8988 0.253416
rtoes 2.87256 -0 0
lowerback 19.0911 2.97315 -2.32092
upperback -0.149834 3.2975 -0.293099
thorax -11.032 1.61866 0.0681701
lowerneck -5.12704 -0.057714 -2.93792
upperneck 4.24821 0.220516 -1.95744
head 2.57421 0.0413539 0.0874895
lclavicle -2.66371e-14 3.18055e-15 0
lhumerus -18.7776 -32.5136 85.8136
lradius 103.811 -0 0
lwrist 29.4685 0 0
lhand -27.3797 43.1221 0.0483854
lfingers 7.12502 -0 0
lthumb -0.785206 72.9746 0.0548014
rclavicle -2.66371e-14 3.18055e-15 0
rhumerus 41.432 24.851 -47.6202
rradius 58.7009 -0 0
rwrist 1.22625 0 0
rhand -5.50352 -38.7072 -0.042053
rfingers 7.12502 -0 0
rthumb 20.3057 -67.6208 -0.026472
2352
root 0.62684 14.2749 -19.6701 -47.6477 -82.2094 55.11
lfemur -15.7614 -0.640351 -4.34773
ltibia 48.8175 -0 0
lfoot -9.58541 25.5532 -0.123721
ltoes -37.8502 0 0
rfemur -62.4921 -7.82581 14.061
rtibia 78.0101 -0 0
rfoot -13.0944 -19.2142 0.263178
rtoes 2.56647 -0 0
lowerback 19.0541 2.92251 -2.15193
upperback -0.192782 3.27813 -0.248369
thorax -11.0517 1.60332 0.0272569
lowerneck -5.13576 0.292471 -2.66156
upperneck 4.40801 0.691598 -2.26328
head 2.63661 0.270418 -0.0286412
lclavicle -2.66371e-14 3.18055e-15 0
lhumerus -16.2871 -33.7033 85.075
lradius 104.112 -0 0
lwrist 27.2179 0 0
lhand -27.7754 43.0836 0.0502492
lfingers 7.12502 -0 0
lthumb -1.16725 72.9295 0.0569121
rclavicle -2.66371e-14 3.18055e-15 0
rhumerus 40.5085 26.2391 -47.7887
rradius 60.0097 -0 0
rwrist 0.551424 0 0
rhand -5.30174 -38.7729 -0.0436711
rfingers 7.12502 -0 0
rthumb 20.4995 -67.6638 -0.0274905
2353
root 0.620607 14.2998 -19.8266 -30.5702 -79.6795 38.1268
lfemur -17.0323 -0.255004 -4.85348
ltibia 50.3555 -0 0
lfoot -9.35272 25.3919 -0.127652
ltoes -37.0705 0 0
rfemur -61.9227 -7.34167 14.2711
rtibia 77.9161 -0 0
rfoot -13.3476 -19.5296 0.271547
rtoes 2.26039 -0 0
lowerback 19.0168 2.87196 -1.98291
upperback -0.235744 3.25879 -0.203626
thorax -11.0715 1.58797 -0.0136509
lowerneck -5.14279 0.642695 -2.38524
upperneck 4.56531 1.16352 -2.56785
head 2.69854 0.499608 -0.144525
lclavicle -2.66371e-14 3.18055e-15 0
lhumerus -13.7429 -34.8647 84.2638
lradius 104.414 -0 0
lwrist 24.9673 0 0
lhand -28.1711 43.0451 0.0518469
lfingers 7.12502 -0 0
lthumb -1.54929 72.8843 0.0587215
rclavicle -2.66371e-14 3.18055e-15 0
rhumerus 39.5691 27.6244 -47.9845
rradius 61.3185 -0 0
rwrist -0.123403 0 0
rhand -5.09996 -38.8385 -0.0450581
rfingers 7.12502 -0 0
rthumb 20.6932 -67.7068 -0.0283636
2354
root 0.614374 14.3247 -19.9831 -20.6937 -76.6142 28.345
lfemur -18.3065 0.119017 -5.36764
ltibia 51.8936 -0 0
lfoot -9.12002 25.2307 -0.130927
ltoes -36.2908 0 0
rfemur -61.3522 -6.85962 14.4859
rtibia 77.822 -0 0
rfoot -13.6008 -19.845 0.278521
rtoes 1.9543 -0 0
lowerback 18.9795 2.82153 -1.81386
upperback -0.278721 3.23948 -0.158869
thorax -11.0912 1.5726 -0.054553
lowerneck -5.14813 0.992948 -2.10894
upperneck 4.72014 1.63628 -2.87118
head 2.76001 0.728922 -0.260166
lclavicle -2.66371e-14 3.18055e-15 0
lhumerus -11.1423 -35.9948 83.378
lradius 104.716 -0 0
lwrist 22.7168 0 0
lhand -28.5668 43.0065 0.0531784
lfingers 7.12502 -0 0
lthumb -1.93133 72.839 0.0602294
rclavicle -2.66371e-14 3.18055e-15 0
rhumerus 38.6119 29.0067 -48.2087
rradius 62.6273 -0 0
rwrist -0.798229 0 0
rhand -4.89817 -38.9041 -0.046214
rfingers 7.12502 -0 0
rthumb 20.887 -67.7499 -0.0290912
2355
root 0.608141 14.3497 -20.1395 -14.5747 -73.3058 22.3214
lfemur -19.5841 0.481496 -5.89001
ltibia 53.4316 -0 0
lfoot -8.88731 25.0694 -0.133548
ltoes -35.5111 0 0
rfemur -60.7803 -6.37973 14.7053
rtibia 77.7279 -0 0
rfoot -13.8541 -20.1605 0.284101
rtoes 1.64822 -0 0
lowerback 18.9419 2.77121 -1.6448
upperback -0.321711 3.22021 -0.114098
thorax -11.1109 1.55722 -0.0954495
lowerneck -5.15179 1.34322 -1.83264
upperneck 4.8725 2.10984 -3.17331
head 2.82102 0.95836 -0.375568
lclavicle -2.66371e-14 3.18055e-15 0
lhumerus -8.48236 -37.0906 82.416
lradius 105.018 -0 0
lwrist 20.4662 0 0
lhand -28.9625 42.968 0.0542437
lfingers 7.12502 -0 0
lthumb -2.31337 72.7938 0.0614359
rclavicle -2.66371e-14 3.18055e-15 0
rhumerus 37.6352 30.3855 -48.4629
rradius 63.9361 -0 0
rwrist -1.47306 0 0
rhand -4.69638 -38.9698 -0.0471387
rfingers 7.12502 -0 0
rthumb 21.0807 -67.7929 -0.0296732
